<svg width="320" height="320" viewBox="0 0 320 320" fill="none" xmlns="http://www.w3.org/2000/svg">
<g clip-path="url(#clip0_101_2)">
<rect width="320" height="320" rx="160" fill="#DAE0E6"/>
<path d="M124.91 237.79C71.44 270.69 96.61 347.56 115.1 314.69Z" fill="white"/>
<path d="M115.13 314.7C114.823 315.774 114.336 316.789 113.69 317.7L112.84 318.92C112.5 319.32 112.16 319.77 111.75 320.2C110.887 321.142 109.873 321.933 108.75 322.54C107.476 323.221 106.027 323.507 104.59 323.36C103.183 323.163 101.852 322.601 100.73 321.73C99.7374 320.978 98.8495 320.097 98.09 319.11C97.4779 318.326 96.9104 317.508 96.39 316.66C93.28 311.57 91.8 305.29 91.23 299.01C90.304 287.484 92.4141 275.917 97.35 265.46C98.4597 263.174 99.6949 260.95 101.05 258.8C102.376 256.748 103.811 254.768 105.35 252.87C108.219 249.398 111.454 246.247 115 243.47C118.01 241.133 121.23 239.081 124.62 237.34C122.47 239.64 119.27 242.7 116.51 245.75C113.75 248.8 111.32 251.75 109.9 253.17C107.141 256 104.684 259.11 102.57 262.45C100.587 265.615 98.9122 268.964 97.57 272.45C95.1176 278.843 93.7651 285.605 93.57 292.45C93.3459 298.423 94.1337 304.39 95.9 310.1C96.6741 312.621 97.7912 315.023 99.22 317.24C100.61 319.24 102.37 321 104.39 321.52C105.504 321.791 106.674 321.725 107.75 321.33C109.022 320.835 110.191 320.11 111.2 319.19C112.657 317.828 113.973 316.324 115.13 314.7V314.7Z" fill="white"/>
<path d="M194.69 240.89C240.43 266.74 218.06 348.43 198.79 314.69Z" fill="white"/>
<path d="M198.81 314.67C199.549 315.41 200.219 316.217 200.81 317.08C202.042 318.746 203.583 320.158 205.35 321.24C206.333 321.797 207.451 322.071 208.58 322.03C209.667 321.933 210.706 321.534 211.58 320.88C213.087 319.711 214.311 318.218 215.16 316.51C217.55 311.86 218.8 306.21 219.4 300.51C219.976 294.852 219.875 289.145 219.1 283.51C217.94 274.346 214.874 265.527 210.1 257.62C206.058 251.158 200.711 245.613 194.4 241.34C198.082 242.347 201.54 244.043 204.59 246.34C207.354 248.288 209.759 250.701 211.7 253.47C215.75 260.017 218.664 267.202 220.32 274.72C221.801 281.249 222.473 287.936 222.32 294.63C222.255 300.539 221.301 306.405 219.49 312.03C218.637 314.626 217.4 317.08 215.82 319.31C215.015 320.398 214.055 321.362 212.97 322.17C211.86 323.002 210.548 323.523 209.17 323.68C207.695 323.812 206.218 323.461 204.96 322.68C203.699 321.891 202.597 320.874 201.71 319.68C200.55 318.129 199.577 316.448 198.81 314.67V314.67Z" fill="white"/>
<path d="M125.46 236.86C157.53 191.54 203.24 223.13 205.38 293.56C204.88 340.12 182.38 328.83 154.24 328.83C126.1 328.83 112.19 338 109.58 304C108.08 284.54 108.92 283.13 112.86 271" fill="white"/>
<path d="M112.89 271C112.72 271.933 112.492 272.855 112.21 273.76C111.8 275.23 111.21 277.2 110.6 279.57C109.922 282.26 109.539 285.017 109.46 287.79C109.34 290.87 109.53 294.22 109.75 297.69C110.26 304.61 110.75 312.1 112.91 318.4C113.81 321.32 115.507 323.931 117.81 325.94C119.764 327.411 122.079 328.327 124.51 328.59C128.37 328.956 132.257 328.922 136.11 328.49C140.11 328.17 144.11 327.78 148.29 327.57C152.469 327.33 156.658 327.3 160.84 327.48C165.04 327.64 169.24 327.97 173.4 328.18C175.48 328.28 177.55 328.36 179.6 328.33C181.625 328.336 183.647 328.189 185.65 327.89C187.576 327.617 189.458 327.096 191.25 326.34C192.97 325.583 194.53 324.507 195.85 323.17C197.183 321.825 198.288 320.271 199.12 318.57L199.45 317.93L199.74 317.26L200.3 315.92C200.6 314.99 200.95 314.08 201.2 313.13C202.203 309.313 202.839 305.408 203.1 301.47C203.545 294.599 203.334 287.701 202.47 280.87C201.706 274.113 200.416 267.426 198.61 260.87C196.878 254.503 194.481 248.336 191.46 242.47C188.628 236.84 184.914 231.699 180.46 227.24C176.08 223 170.98 219.66 165.46 218.24C160.092 216.75 154.399 216.921 149.13 218.73C144.177 220.441 139.617 223.127 135.72 226.63C132.134 229.835 128.866 233.378 125.96 237.21C128.409 232.961 131.356 229.02 134.74 225.47C138.78 221.232 143.718 217.952 149.19 215.87C151.954 214.864 154.846 214.248 157.78 214.04H159.9C160.595 214.014 161.29 214.044 161.98 214.13C163.303 214.247 164.616 214.458 165.91 214.76C169.964 215.696 173.796 217.415 177.19 219.82C181.877 223.252 185.937 227.467 189.19 232.28C192.352 236.836 194.998 241.73 197.08 246.87C201.023 256.594 203.649 266.801 204.89 277.22C205.04 278.47 205.2 279.72 205.35 280.97C205.5 282.22 205.57 283.46 205.67 284.7C205.93 287.18 205.97 289.7 206.1 292.11C206.165 293.332 206.165 294.558 206.1 295.78C206.1 297 206.03 298.22 205.94 299.42C205.85 300.62 205.8 301.83 205.66 303.02C205.52 304.21 205.43 305.4 205.23 306.58C205.03 307.76 204.89 308.94 204.63 310.1C204.37 311.26 204.12 312.42 203.81 313.56C203.667 314.132 203.493 314.696 203.29 315.25C203.1 315.81 202.93 316.37 202.72 316.93C202.286 318.026 201.792 319.098 201.24 320.14C200.156 322.239 198.706 324.129 196.96 325.72C195.202 327.259 193.165 328.447 190.96 329.22C186.7 330.553 182.237 331.115 177.78 330.88C173.45 330.81 169.25 330.46 165.13 330.21C161.01 329.96 156.96 329.78 152.99 329.85C149.02 329.92 145.11 330.14 141.26 330.43C137.41 330.72 133.6 331.04 129.79 331.06C127.872 331.086 125.956 330.952 124.06 330.66C122.13 330.372 120.263 329.756 118.54 328.84C116.838 327.882 115.359 326.573 114.2 325C113.086 323.504 112.196 321.853 111.56 320.1C110.358 316.794 109.556 313.356 109.17 309.86C108.73 306.64 108.54 302.86 108.36 298.86C108.133 294.862 108.163 290.854 108.45 286.86C108.62 285.006 108.927 283.168 109.37 281.36C109.79 279.65 110.31 278.11 110.77 276.74C111.73 274.08 112.51 272 112.89 271V271Z" fill="white"/>
<path d="M229 74.81C228 75.28 223.22 72.53 217.76 69.37C212.3 66.21 206.06 62.77 202.34 61.43C199.08 60.21 195.72 59.02 192.34 58.07C190.719 57.6172 189.073 57.2599 187.41 57C186.025 56.7616 184.613 56.7346 183.22 56.92C182.8 56.9815 182.393 57.1169 182.02 57.32C181.89 57.4 181.85 57.49 181.75 57.54C181.65 57.59 181.63 57.65 181.61 57.78L180.61 59.53C180.19 60.31 179.7 61.06 179.32 61.87C178.52 63.45 177.7 65.01 177.02 66.62C176.34 68.23 175.68 69.82 175.02 71.4C170.83 82.57 168.85 94.46 167.5 105.58C166.15 116.7 165.45 127.04 164.45 135.43C162.955 133.432 161.671 131.284 160.62 129.02C159.475 126.518 158.509 123.939 157.73 121.3C156.23 116.06 155.67 110.97 156.2 108.3C158.101 98.4019 160.562 88.6196 163.57 79C166.228 70.5721 169.856 62.4813 174.38 54.89L174.77 54.22L174.97 53.89L175.06 53.72L175.22 53.52C175.599 52.9487 176.046 52.425 176.55 51.96L177.33 51.27L178.19 50.74C178.759 50.4007 179.362 50.1225 179.99 49.91C182.21 49.2297 184.553 49.052 186.85 49.39C190.725 49.9397 194.51 50.9954 198.11 52.53C204.346 55.0958 210.262 58.3778 215.74 62.31C220.67 65.58 227.66 73.25 229 74.81Z" fill="white"/>
<path d="M105.63 128C62.35 107.85 31.45 164.54 74.88 189.74Z" fill="white"/>
<path d="M74.86 189.75C74.36 189.75 70.46 187.75 66.55 184.53C65.61 183.68 64.55 182.88 63.67 181.94C62.79 181 61.85 180.08 61.06 179.12C60.27 178.16 59.55 177.22 58.91 176.35C58.27 175.48 57.78 174.65 57.34 173.97C54.0869 168.778 52.3547 162.777 52.34 156.65C52.3659 153.484 52.8029 150.334 53.64 147.28C53.86 146.52 54.14 145.79 54.38 145.04L54.77 143.94L55.24 142.87C55.57 142.17 55.86 141.45 56.24 140.76C56.62 140.07 57 139.43 57.37 138.76C60.0032 134.328 63.6096 130.554 67.9165 127.721C72.2234 124.889 77.1179 123.072 82.23 122.41C86.6874 121.88 91.2044 122.185 95.55 123.31C99.1813 124.238 102.675 125.64 105.94 127.48C102.86 127.07 98.67 126.06 94.69 125.89C91.5338 125.687 88.3685 125.667 85.21 125.83C81.444 125.813 77.7097 126.519 74.21 127.91C70.8206 129.26 67.7011 131.208 65 133.66C60.399 137.864 57.1551 143.344 55.6821 149.399C54.2091 155.455 54.5739 161.812 56.73 167.66C58.4814 172.382 61.1377 176.716 64.55 180.42C66.3346 182.413 68.238 184.297 70.25 186.06C71.1562 186.888 72.1041 187.669 73.09 188.4L74.86 189.75Z" fill="white"/>
<path d="M254.61 176.52C285.06 149.63 251.85 104.97 214.9 121.85Z" fill="white"/>
<path d="M214.89 121.83C215.642 121.239 216.478 120.764 217.37 120.42C218.184 120.031 219.022 119.697 219.88 119.42L221.35 118.91C221.85 118.73 222.4 118.64 222.94 118.49C224.048 118.192 225.174 117.962 226.31 117.8C227.428 117.603 228.557 117.473 229.69 117.41C231.565 117.297 233.445 117.297 235.32 117.41C240.718 117.711 245.969 119.288 250.64 122.01L252.43 123.1C253.02 123.47 253.56 123.91 254.13 124.32C257.471 126.774 260.358 129.793 262.66 133.24C265.342 137.086 267.164 141.466 268 146.08C268.788 150.481 268.597 155.001 267.44 159.32C266.369 163.191 264.559 166.817 262.11 170C260.065 172.645 257.67 175 254.99 177C256.36 174.56 258.57 171.46 260.04 168.27C260.47 167.51 260.74 166.68 261.04 165.96C261.2 165.58 261.39 165.23 261.53 164.87L261.91 163.87C262.15 163.19 262.44 162.59 262.63 162.03C262.777 161.548 262.951 161.073 263.15 160.61C265.664 154.557 265.838 147.785 263.64 141.61C262.652 138.76 261.261 136.066 259.51 133.61C257.835 131.322 255.891 129.244 253.72 127.42C253.2 126.97 252.64 126.59 252.1 126.18C251.579 125.764 251.031 125.383 250.46 125.04L248.78 124.04L247.06 123.16L246.21 122.72C245.93 122.59 245.63 122.48 245.34 122.36L243.61 121.65C243.03 121.44 242.44 121.28 241.87 121.09C241.302 120.894 240.725 120.728 240.14 120.59C235.812 119.547 231.341 119.233 226.91 119.66C226.42 119.72 225.91 119.76 225.31 119.8L223.55 120.07C222.95 120.16 222.32 120.22 221.71 120.33L219.9 120.72C219.31 120.85 218.73 120.94 218.2 121.09L216.74 121.5L214.89 121.83Z" fill="white"/>
<path d="M159.25 111.23C110.64 110.86 65.3 138.46 63.07 183.45C61.2 266.86 257.31 266.86 255.44 183.45C255.44 135.12 210.72 111.23 159.25 111.23V111.23Z" fill="white"/>
<path d="M159.25 111.2C164.204 110.941 169.171 111.048 174.11 111.52C184.374 112.341 194.505 114.375 204.29 117.58C209.976 119.458 215.476 121.858 220.72 124.75C225.92 127.611 230.781 131.049 235.21 135C242.57 141.538 248.317 149.691 252 158.82C254.449 165.086 255.949 171.682 256.45 178.39C256.58 180.09 256.6 181.79 256.67 183.5V187.39L256.56 188.69L256.34 191.3L255.92 193.9C255.789 194.77 255.609 195.631 255.38 196.48C255.16 197.33 255.01 198.2 254.71 199.04C253.68 202.442 252.289 205.724 250.56 208.83C248.774 211.933 246.698 214.859 244.36 217.57C241.977 220.247 239.385 222.731 236.61 225C233.817 227.246 230.874 229.297 227.8 231.14C215.48 238.52 201.61 242.88 187.73 245.38C174.021 247.778 160.068 248.467 146.19 247.43C134.334 246.609 122.619 244.363 111.3 240.74C100.08 237.07 89.3 231.74 80.3 224.16C75.772 220.404 71.8582 215.964 68.7 211C65.5895 206.071 63.3849 200.625 62.19 194.92C61.0727 189.321 60.9171 183.572 61.73 177.92C62.4495 172.433 63.8538 167.058 65.91 161.92C69.9385 152.109 76.1209 143.329 84 136.23C91.3433 129.604 99.7205 124.223 108.8 120.3C113.039 118.41 117.402 116.813 121.86 115.52C126.107 114.266 130.425 113.264 134.79 112.52C136.91 112.11 139.03 111.87 141.11 111.52C143.19 111.17 145.26 111.05 147.31 110.95C151.39 110.62 155.37 110.62 159.22 110.66C151.066 111.077 142.963 112.195 135 114C125.815 116.069 116.912 119.231 108.48 123.42C100.617 127.34 93.3513 132.356 86.9 138.32C82.2288 142.662 78.114 147.566 74.65 152.92C69.6406 160.577 66.3863 169.248 65.12 178.31C63.7365 187.083 64.9388 196.069 68.58 204.17C72.3237 211.999 77.9099 218.803 84.86 224C91.6144 229.096 99.072 233.185 107 236.14C114.69 239.076 122.643 241.272 130.75 242.7C138.604 244.115 146.553 244.94 154.53 245.17C169.754 245.657 184.968 243.939 199.7 240.07C206.691 238.208 213.489 235.684 220 232.53C223.156 230.988 226.215 229.255 229.16 227.34C232.042 225.455 234.789 223.37 237.38 221.1C242.435 216.696 246.597 211.363 249.64 205.39L250.2 204.3L250.68 203.17C250.98 202.41 251.32 201.67 251.6 200.91C252.153 199.393 252.624 197.848 253.01 196.28C253.787 193.182 254.246 190.012 254.38 186.82C254.38 185.23 254.46 183.66 254.38 182.07C254.3 180.48 254.31 178.9 254.12 177.35L253.91 175.01C253.82 174.24 253.68 173.47 253.57 172.71C253.46 171.95 253.35 171.17 253.2 170.41L252.71 168.16C251.401 162.256 249.189 156.589 246.15 151.36C243.207 146.314 239.583 141.697 235.38 137.64C231.295 133.729 226.779 130.293 221.92 127.4C216.731 124.314 211.276 121.7 205.62 119.59C199.442 117.28 193.088 115.47 186.62 114.18C177.599 112.402 168.442 111.405 159.25 111.2Z" fill="white"/>
<path d="M238.47 103.06C251.134 103.06 261.4 92.7939 261.4 80.13C261.4 67.4661 251.134 57.2 238.47 57.2C225.806 57.2 215.54 67.4661 215.54 80.13C215.54 92.7939 225.806 103.06 238.47 103.06Z" fill="white"/>
<path d="M261.37 80.13C261.225 79.7134 261.134 79.2798 261.1 78.84C261.04 78.5 261.02 78.09 260.93 77.64C260.84 77.19 260.74 76.64 260.63 76.14C260.038 73.442 258.982 70.8671 257.51 68.53C255.809 65.8552 253.564 63.5689 250.92 61.82C248.777 60.3985 246.38 59.4037 243.86 58.89C240.381 58.1572 236.778 58.2735 233.354 59.2292C229.93 60.1848 226.786 61.9517 224.19 64.38C221.56 66.8504 219.599 69.9467 218.49 73.38C217.4 76.6975 217.159 80.2354 217.79 83.67C218.299 86.5612 219.403 89.3149 221.033 91.7561C222.664 94.1973 224.784 96.2726 227.26 97.85C232.023 100.892 237.791 101.94 243.32 100.77C248.416 99.6944 252.957 96.8277 256.12 92.69C257.549 90.8158 258.691 88.7398 259.51 86.53C260.213 84.4767 260.657 82.3435 260.83 80.18C261.279 82.4244 261.319 84.7312 260.95 86.99C259.997 92.3609 257.068 97.1806 252.74 100.5C251.189 101.704 249.458 102.656 247.61 103.32C244.972 104.223 242.198 104.666 239.41 104.63C236.749 104.632 234.106 104.207 231.58 103.37C229.163 102.544 226.881 101.365 224.81 99.87C222.833 98.4147 221.081 96.676 219.61 94.71C218.186 92.8212 217.056 90.7274 216.26 88.5C215.85 87.4178 215.516 86.3085 215.26 85.18C215.13 84.62 215.08 84.06 214.98 83.5L214.86 82.66C214.86 82.38 214.86 82.1 214.81 81.82C214.81 81.26 214.81 80.7 214.74 80.14C214.67 79.58 214.79 79.03 214.82 78.48C214.837 77.9299 214.893 77.3818 214.99 76.84C215.08 76.3 215.14 75.75 215.25 75.22C215.714 73.1382 216.436 71.1225 217.4 69.22C218.829 66.4678 220.767 64.0112 223.11 61.98C223.48 61.64 223.9 61.36 224.29 61.05C224.674 60.7334 225.078 60.4428 225.5 60.18C228.616 58.1005 232.182 56.7935 235.904 56.3674C239.625 55.9414 243.395 56.4085 246.9 57.73C250.065 58.9178 252.93 60.7889 255.29 63.21C258.953 67.0375 261.112 72.0583 261.37 77.35C261.48 78.61 261.37 79.64 261.37 80.13Z" fill="white"/>
</g>
<defs>
<clipPath id="clip0_101_2">
<rect width="320" height="320" rx="160" fill="white"/>
</clipPath>
</defs>
</svg>
